<svg width="69" height="61" viewBox="0 0 69 61" fill="none" xmlns="http://www.w3.org/2000/svg">
<path d="M36.3498 15.2208L36.0414 15.1288C35.388 14.934 35.0151 14.2467 35.2101 13.5923L36.3498 15.2208ZM36.3498 15.2208L36.385 15.1807M36.3498 15.2208L36.385 15.1807M36.385 15.1807C36.9226 15.1853 37.4185 14.8356 37.5784 14.2967C38.7093 10.4967 42.275 7.8397 46.2453 7.8397C46.9276 7.8397 47.4809 7.28637 47.4809 6.60407C47.4809 5.92175 46.9276 5.36845 46.2453 5.36845C41.0152 5.36845 36.6212 8.8507 35.2102 13.592L36.385 15.1807Z" fill="#FFA800" stroke="#F9FFF9"/>
<path d="M56.5215 42.5723H52.1174C51.7121 42.5723 51.3833 42.2436 51.3833 41.8383C51.3833 41.433 51.7121 41.1042 52.1174 41.1042H56.5215C62.5925 41.1042 67.5321 36.1646 67.5321 30.0937C67.5321 24.0227 62.5925 19.0831 56.5215 19.0831H56.4156C56.2028 19.0831 56.0004 18.9908 55.8609 18.8298C55.7214 18.6689 55.6585 18.4555 55.6889 18.2447C55.7545 17.7875 55.7875 17.3282 55.7875 16.881C55.7875 11.6195 51.5064 7.33839 46.2449 7.33839C44.198 7.33839 42.246 7.97806 40.5996 9.18868C40.2378 9.45451 39.724 9.33654 39.5148 8.93858C34.8521 0.0598876 22.6736 -1.13243 16.3597 6.59126C13.6999 9.84514 12.6548 14.0779 13.4922 18.2033C13.5845 18.6589 13.2358 19.0836 12.7729 19.0836H12.4787C6.40775 19.0836 1.46815 24.0232 1.46815 30.0942C1.46815 36.1652 6.40775 41.1048 12.4787 41.1048H16.8829C17.2882 41.1048 17.617 41.4335 17.617 41.8388C17.617 42.2441 17.2882 42.5729 16.8829 42.5729H12.4787C5.59811 42.5729 0 36.9748 0 30.0942C0 23.4066 5.28819 17.9306 11.9025 17.6286C11.2812 13.3486 12.4693 9.03136 15.223 5.66218C21.9829 -2.6078 34.9379 -1.68085 40.4142 7.54079C42.1613 6.44549 44.1605 5.8709 46.2447 5.8709C52.6193 5.8709 57.6706 11.2965 57.2286 17.6354C63.782 18.003 68.9999 23.45 68.9999 30.0936C68.9999 36.9748 63.4018 42.5724 56.5212 42.5724L56.5215 42.5723Z" fill="#FFA800"/>
<path d="M15.5489 41.4238C15.5489 51.8197 24.0059 60.2766 34.4017 60.2766C44.7976 60.2766 53.2545 51.8196 53.2545 41.4238C53.2545 31.0278 44.7976 22.571 34.4017 22.571C24.0057 22.571 15.5489 31.028 15.5489 41.4238ZM18.0205 41.4238C18.0205 32.3918 25.3696 25.0426 34.4017 25.0426C43.4337 25.0426 50.7829 32.3916 50.7829 41.4238C50.7829 50.4558 43.4337 57.805 34.4017 57.805C25.3697 57.805 18.0205 50.4559 18.0205 41.4238Z" fill="#FFA800" stroke="#F9FFF9"/>
<path d="M33.6988 48.8112C33.6988 49.3849 34.164 49.8502 34.7378 49.8502C35.3113 49.8502 35.7767 49.3855 35.7767 48.8112V34.8387C35.7767 34.2649 35.3115 33.7997 34.7378 33.7997C34.164 33.7997 33.6988 34.2649 33.6988 34.8387V48.8112Z" fill="#FFA800" stroke="#333333"/>
<path d="M34.7374 36.3094L31.1732 39.8735L31.1729 39.8739L30.8182 39.5192L34.7374 36.3094ZM34.7374 36.3094L38.3019 39.8738C38.3019 39.8738 38.3019 39.8738 38.3019 39.8739C38.5045 40.0765 38.7716 40.1781 39.0365 40.1781L34.7374 36.3094ZM34.0027 34.1053C34.4084 33.6992 35.0665 33.6998 35.472 34.1053L39.7712 38.4045C40.177 38.8103 40.177 39.468 39.7712 39.8739C39.5678 40.0776 39.3004 40.1781 39.0366 40.1781L34.0027 34.1053ZM34.0027 34.1053C34.0026 34.1054 34.0026 34.1054 34.0025 34.1054M34.0027 34.1053L34.0025 34.1054M34.0025 34.1054C34.0025 34.1055 34.0024 34.1056 34.0023 34.1056L34.0025 34.1054Z" fill="#FFA800" stroke="#333333"/>
</svg>
