<svg width="16" height="16" viewBox="0 0 16 16" fill="none" xmlns="http://www.w3.org/2000/svg">
<g clip-path="url(#clip0_16_373)">
<path d="M11.96 11.96C10.8204 12.8286 9.43273 13.3099 7.99999 13.3333C3.33332 13.3333 0.666656 7.99996 0.666656 7.99996C1.49592 6.45456 2.64608 5.10436 4.03999 4.03996M6.59999 2.82663C7.05888 2.71921 7.5287 2.66552 7.99999 2.66663C12.6667 2.66663 15.3333 7.99996 15.3333 7.99996C14.9286 8.75703 14.446 9.46978 13.8933 10.1266M9.41332 9.41329C9.23022 9.60979 9.00942 9.7674 8.76409 9.87671C8.51876 9.98602 8.25392 10.0448 7.98538 10.0495C7.71684 10.0543 7.4501 10.0049 7.20106 9.90429C6.95203 9.8037 6.7258 9.65398 6.53589 9.46406C6.34597 9.27414 6.19625 9.04792 6.09566 8.79889C5.99507 8.54985 5.94567 8.28311 5.95041 8.01457C5.95515 7.74602 6.01393 7.48119 6.12324 7.23586C6.23255 6.99053 6.39016 6.76972 6.58666 6.58663M0.666656 0.666626L15.3333 15.3333" stroke="#1E1E1E" stroke-width="1.6" stroke-linecap="round" stroke-linejoin="round"/>
</g>
<defs>
<clipPath id="clip0_16_373">
<rect width="16" height="16" fill="white"/>
</clipPath>
</defs>
</svg>
